<svg xmlns="http://www.w3.org/2000/svg" viewBox="0 0 32 32">
  <circle cx="16" cy="16" r="16" fill="#F7931A"/>
  <path fill="#fff" d="M22.6 13.9c.3-2.2-1.3-3.3-3.6-4.1l.7-2.9-1.8-.4-.7 2.8-.7-.2.7-2.8-1.8-.4-.7 2.9-1.4-.4v-.1l-2.5-.6-.5 1.9s1.3.3 1.3.3c.7.2.9.6.8 1l-2 7.9c-.1.3-.4.7-1 .6 0 0-1.3-.3-1.3-.3l-.9 2 2.3.6.7.2-.7 2.9 1.8.4.7-2.9.7.2-.7 2.9 1.8.4.7-2.9c3 .6 5.2.3 6.1-2.3.8-2.1-.1-3.3-1.5-4 1-.2 1.8-1 2-2.2zm-3.6 5c-.6 2.2-4.4 1-5.6.7l1-4c1.2.3 5.2.9 4.6 3.3zm.6-5.1c-.5 2-3.7 1-4.8.7l.9-3.7c1.1.3 4.4.8 3.9 3z"/>
</svg>
